# xmcd CD database file
#
# Track frame offsets:
#	150
#	18889
#	56514
#	61042
#	78555
#	107806
#	141574
#	160785
#	181581
#
# Disc length: 2829 seconds
#
# Revision: 0
# Processed by: cddbd v1.5.1PL2 Copyright (c) Steve Scherf et al.
# Submitted via: CDex 1.50Beta7
#
DISCID=6b0b0b09
DTITLE=Sai Ghose Quartet - New Blood
DYEAR=2006
DGENRE=Jazz
TTITLE0=New Blood
TTITLE1=Cinq-ro-mesh
TTITLE2=Just Before Six AM
TTITLE3=Six AM
TTITLE4=Talkin' Trash
TTITLE5=The Strut
TTITLE6=Zeal
TTITLE7=Little B's Poem
TTITLE8=Signature
EXTD=YEAR: 2006
EXTT0=
EXTT1=
EXTT2=
EXTT3=
EXTT4=
EXTT5=
EXTT6=
EXTT7=
EXTT8=
PLAYORDER=
